<?xml version="1.0" encoding="UTF-8" standalone="no"?>
<!-- Created with Inkscape (http://www.inkscape.org/) -->

<svg
   version="1.1"
   id="svg442"
   width="10000"
   height="7000"
   viewBox="0 0 10000 7000"
   sodipodi:docname="platform.svg"
   inkscape:version="1.2.1 (9c6d41e410, 2022-07-14)"
   xmlns:inkscape="http://www.inkscape.org/namespaces/inkscape"
   xmlns:sodipodi="http://sodipodi.sourceforge.net/DTD/sodipodi-0.dtd"
   xmlns:xlink="http://www.w3.org/1999/xlink"
   xmlns="http://www.w3.org/2000/svg"
   xmlns:svg="http://www.w3.org/2000/svg">
  <defs
     id="defs446" />
  <sodipodi:namedview
     id="namedview444"
     pagecolor="#505050"
     bordercolor="#eeeeee"
     borderopacity="1"
     inkscape:showpageshadow="0"
     inkscape:pageopacity="0"
     inkscape:pagecheckerboard="0"
     inkscape:deskcolor="#505050"
     showgrid="false"
     inkscape:zoom="0.60334525"
     inkscape:cx="8084.9232"
     inkscape:cy="4147.7081"
     inkscape:window-width="2414"
     inkscape:window-height="1481"
     inkscape:window-x="0"
     inkscape:window-y="0"
     inkscape:window-maximized="0"
     inkscape:current-layer="g448" />
  <g
     inkscape:groupmode="layer"
     inkscape:label="Image"
     id="g448">
    <image
       width="10000"
       height="7000"
       preserveAspectRatio="none"
       xlink:href="../../resources/findMe.png"
       id="image450" />
    <path
       style="fill:#000000"
       d="m 8091.1391,4889.2672 -1.3109,-58.6603 246.111,-1.9663 0.3277,61.6097 z"
       id="path252" />
    <path
       style="fill:#000000"
       d="m 8498.9803,4601.4887 4.9156,133.7061 122.8917,-1.9663 -5.2434,-132.0675 z"
       id="path254" />
    <path
       style="fill:#000000"
       d="m 8611.8382,4205.7005 -259.5472,2.9494 -0.6554,-70.4579 255.6146,0.9831 z"
       id="path256" />
    <path
       style="fill:#000000"
       d="m 8863.2436,4418.8481 -146.9976,0.9443 -0.3148,-42.494 148.2567,0.3148 z"
       id="path258" />
    <path
       style="fill:#000000"
       d="m 7914.7955,4167.6755 1.7806,123.3071 132.6553,-1.3355 -2.6709,-123.7522 z"
       id="path260" />
    <path
       style="fill:#000000"
       d="m 4348.6208,3561.6382 v -53.3249 h 202.1661 v 56.2549 z"
       id="path199" />
    <path
       style="fill:#000000"
       d="m 4709.0038,3286.2236 6.4458,155.873 79.6945,-2.344 1.7579,-155.2869 z"
       id="path201" />
    <path
       style="fill:#000000"
       d="m 5072.9026,3266.886 -0.586,-177.5545 h 114.8538 l -4.6879,176.9685 z"
       id="path205" />
    <path
       style="fill:#000000"
       d="m 5317.2598,2906.5031 4.102,47.465 90.8282,-3.5159 -2.344,-45.7071 z"
       id="path207" />
    <path
       style="fill:#000000"
       d="m 4817.4116,2751.2161 1.172,59.1848 249.0451,-1.1719 1.172,-57.4269 z"
       id="path209" />
    <path
       style="fill:#000000"
       d="m 3244.4111,3623.9616 v -64.6396 l 251.1,1.6574 -3.3149,62.9822 z"
       id="path211" />
    <path
       style="fill:#000000"
       d="m 3168.9982,3107.6734 1.6574,61.3248 h 251.9287 l -4.1435,-64.6396 z"
       id="path213" />
  </g>
</svg>
